<svg width="20" height="20" viewBox="0 0 20 20" fill="none" xmlns="http://www.w3.org/2000/svg">
<path d="M4.99998 18.3332C4.55795 18.3332 4.13403 18.1576 3.82147 17.845C3.50891 17.5325 3.33331 17.1085 3.33331 16.6665V3.33317C3.33331 2.89115 3.50891 2.46722 3.82147 2.15466C4.13403 1.8421 4.55795 1.66651 4.99998 1.66651H11.6666C11.9304 1.66608 12.1917 1.71784 12.4354 1.81881C12.6791 1.91979 12.9005 2.06797 13.0866 2.25484L16.0766 5.24484C16.264 5.4311 16.4126 5.65263 16.5139 5.89664C16.6152 6.14065 16.6671 6.40231 16.6666 6.66651V16.6665C16.6666 17.1085 16.4911 17.5325 16.1785 17.845C15.8659 18.1576 15.442 18.3332 15 18.3332H4.99998Z" stroke="#3B82F6" stroke-width="1.66667" stroke-linecap="round" stroke-linejoin="round"/>
<path d="M11.6667 1.6665V5.83317C11.6667 6.05418 11.7545 6.26615 11.9108 6.42243C12.067 6.57871 12.279 6.6665 12.5 6.6665H16.6667" stroke="#3B82F6" stroke-width="1.66667" stroke-linecap="round" stroke-linejoin="round"/>
<path d="M8.33335 7.5H6.66669" stroke="#3B82F6" stroke-width="1.66667" stroke-linecap="round" stroke-linejoin="round"/>
<path d="M13.3334 10.8335H6.66669" stroke="#3B82F6" stroke-width="1.66667" stroke-linecap="round" stroke-linejoin="round"/>
<path d="M13.3334 14.1665H6.66669" stroke="#3B82F6" stroke-width="1.66667" stroke-linecap="round" stroke-linejoin="round"/>
</svg>
