<svg width="21" height="21" viewBox="0 0 21 21" fill="none" xmlns="http://www.w3.org/2000/svg">
<path d="M18.7424 9.55657C18.8991 9.48747 19.032 9.37394 19.1248 9.23003C19.2175 9.08612 19.266 8.91817 19.2642 8.74697C19.2625 8.57577 19.2105 8.40886 19.1148 8.2669C19.0191 8.12494 18.8839 8.01417 18.7258 7.94832L11.2262 4.53232C10.9982 4.42833 10.7505 4.37451 10.4999 4.37451C10.2494 4.37451 10.0017 4.42833 9.7737 4.53232L2.27495 7.94482C2.11917 8.01305 1.98665 8.12519 1.89359 8.26754C1.80053 8.40988 1.75098 8.57626 1.75098 8.74632C1.75098 8.91639 1.80053 9.08277 1.89359 9.22511C1.98665 9.36746 2.11917 9.4796 2.27495 9.54782L9.7737 12.9673C10.0017 13.0713 10.2494 13.1251 10.4999 13.1251C10.7505 13.1251 10.9982 13.0713 11.2262 12.9673L18.7424 9.55657Z" stroke="#3B82F6" stroke-width="1.66667" stroke-linecap="round" stroke-linejoin="round"/>
<path d="M19.25 8.75V14" stroke="#3B82F6" stroke-width="1.66667" stroke-linecap="round" stroke-linejoin="round"/>
<path d="M5.25 10.9375V14C5.25 14.6962 5.80312 15.3639 6.78769 15.8562C7.77226 16.3484 9.10761 16.625 10.5 16.625C11.8924 16.625 13.2277 16.3484 14.2123 15.8562C15.1969 15.3639 15.75 14.6962 15.75 14V10.9375" stroke="#3B82F6" stroke-width="1.66667" stroke-linecap="round" stroke-linejoin="round"/>
</svg>
